<?xml version="1.0" encoding="UTF-8" standalone="no"?>
<!DOCTYPE svg PUBLIC "-//W3C//DTD SVG 1.1//EN"
 "http://www.w3.org/Graphics/SVG/1.1/DTD/svg11.dtd">
<!-- Generated by graphviz version 2.43.0 (0)
 -->
<!-- Title: %3 Pages: 1 -->
<svg width="1255pt" height="716pt"
 viewBox="0.00 0.00 1255.00 716.00" xmlns="http://www.w3.org/2000/svg" xmlns:xlink="http://www.w3.org/1999/xlink">
<g id="graph0" class="graph" transform="scale(1 1) rotate(0) translate(4 712)">
<title>%3</title>
<polygon fill="#ffffff" stroke="transparent" points="-4,4 -4,-712 1251,-712 1251,4 -4,4"/>
<g id="clust1" class="cluster">
<title>cluster1</title>
<polygon fill="#ffffff" stroke="black" stroke-dasharray="5,2" points="1033,-91.5 1033,-663.5 1239,-663.5 1239,-91.5 1033,-91.5"/>
<text text-anchor="middle" x="1136" y="-648.3" font-family="arial" font-size="14.00">Headlights</text>
</g>
<!-- X1 -->
<g id="node1" class="node">
<title>X1</title>
<polygon fill="#ffffff" stroke="black" points="80,-460.5 0,-460.5 0,-414.5 80,-414.5 80,-460.5"/>
<polygon fill="none" stroke="black" points="0,-437.5 0,-460.5 80,-460.5 80,-437.5 0,-437.5"/>
<text text-anchor="start" x="31.5" y="-445.3" font-family="arial" font-size="14.00">X1</text>
<polygon fill="none" stroke="black" points="0,-414.5 0,-437.5 80,-437.5 80,-414.5 0,-414.5"/>
<text text-anchor="start" x="4" y="-422.3" font-family="arial" font-size="14.00">page_break</text>
</g>
<!-- W1 -->
<g id="node10" class="node">
<title>W1</title>
<polygon fill="#ffffff" stroke="black" points="356,-524.5 224,-524.5 224,-390.5 356,-390.5 356,-524.5"/>
<polygon fill="none" stroke="black" points="224,-501.5 224,-524.5 356,-524.5 356,-501.5 224,-501.5"/>
<text text-anchor="start" x="279" y="-509.3" font-family="arial" font-size="14.00">W1</text>
<polygon fill="none" stroke="black" points="224,-478.5 224,-501.5 247,-501.5 247,-478.5 224,-478.5"/>
<text text-anchor="start" x="228" y="-486.3" font-family="arial" font-size="14.00">2x</text>
<polygon fill="none" stroke="black" points="247,-478.5 247,-501.5 307,-501.5 307,-478.5 247,-478.5"/>
<text text-anchor="start" x="251" y="-486.3" font-family="arial" font-size="14.00">14 AWG</text>
<polygon fill="none" stroke="black" points="307,-478.5 307,-501.5 356,-501.5 356,-478.5 307,-478.5"/>
<text text-anchor="start" x="311" y="-486.3" font-family="arial" font-size="14.00">72.0 in</text>
<text text-anchor="start" x="242" y="-465.3" font-family="arial" font-size="14.00"> </text>
<text text-anchor="start" x="230" y="-446.3" font-family="arial" font-size="14.00">X1:1</text>
<text text-anchor="start" x="272.5" y="-446.3" font-family="arial" font-size="14.00"> &#160;&#160;&#160;&#160;1:YE &#160;&#160;&#160;</text>
<polygon fill="#000000" stroke="transparent" points="224,-438.5 224,-440.5 356,-440.5 356,-438.5 224,-438.5"/>
<polygon fill="#ffff00" stroke="transparent" points="224,-436.5 224,-438.5 356,-438.5 356,-436.5 224,-436.5"/>
<polygon fill="#000000" stroke="transparent" points="224,-434.5 224,-436.5 356,-436.5 356,-434.5 224,-434.5"/>
<text text-anchor="start" x="230" y="-421.3" font-family="arial" font-size="14.00">X2:1</text>
<text text-anchor="start" x="270" y="-421.3" font-family="arial" font-size="14.00"> &#160;&#160;&#160;&#160;2:WH &#160;&#160;&#160;</text>
<polygon fill="#000000" stroke="transparent" points="224,-413.5 224,-415.5 356,-415.5 356,-413.5 224,-413.5"/>
<polygon fill="#ffffff" stroke="transparent" points="224,-411.5 224,-413.5 356,-413.5 356,-411.5 224,-411.5"/>
<polygon fill="#000000" stroke="transparent" points="224,-409.5 224,-411.5 356,-411.5 356,-409.5 224,-409.5"/>
<text text-anchor="start" x="242" y="-396.3" font-family="arial" font-size="14.00"> </text>
</g>
<!-- X1&#45;&#45;W1 -->
<g id="edge1" class="edge">
<title>X1:e&#45;&#45;W1:w</title>
<path fill="none" stroke="#000000" stroke-width="2" d="M80,-435.5C144,-435.5 160,-435.5 224,-435.5"/>
<path fill="none" stroke="#ffff00" stroke-width="2" d="M80,-437.5C144,-437.5 160,-437.5 224,-437.5"/>
<path fill="none" stroke="#000000" stroke-width="2" d="M80,-439.5C144,-439.5 160,-439.5 224,-439.5"/>
</g>
<!-- S1 -->
<g id="node2" class="node">
<title>S1</title>
<polygon fill="#ffffff" stroke="black" points="595,-460 500,-460 500,-437 595,-437 595,-460"/>
<polygon fill="none" stroke="black" points="500.5,-436.5 500.5,-459.5 543.5,-459.5 543.5,-436.5 500.5,-436.5"/>
<text text-anchor="start" x="504.5" y="-444.3" font-family="arial" font-size="14.00">splice</text>
<polygon fill="none" stroke="black" points="543.5,-436.5 543.5,-459.5 595.5,-459.5 595.5,-436.5 543.5,-436.5"/>
<text text-anchor="start" x="547.5" y="-444.3" font-family="arial" font-size="14.00">14 awg</text>
</g>
<!-- W4 -->
<g id="node13" class="node">
<title>W4</title>
<polygon fill="#ffffff" stroke="black" points="897,-525 739,-525 739,-366 897,-366 897,-525"/>
<polygon fill="none" stroke="black" points="739,-501.5 739,-524.5 897,-524.5 897,-501.5 739,-501.5"/>
<text text-anchor="start" x="807" y="-509.3" font-family="arial" font-size="14.00">W4</text>
<polygon fill="none" stroke="black" points="739,-478.5 739,-501.5 771,-501.5 771,-478.5 739,-478.5"/>
<text text-anchor="start" x="747.5" y="-486.3" font-family="arial" font-size="14.00">3x</text>
<polygon fill="none" stroke="black" points="771,-478.5 771,-501.5 840,-501.5 840,-478.5 771,-478.5"/>
<text text-anchor="start" x="779.5" y="-486.3" font-family="arial" font-size="14.00">18 AWG</text>
<polygon fill="none" stroke="black" points="840,-478.5 840,-501.5 897,-501.5 897,-478.5 840,-478.5"/>
<text text-anchor="start" x="848" y="-486.3" font-family="arial" font-size="14.00">72.0 in</text>
<text text-anchor="start" x="741" y="-465.3" font-family="arial" font-size="14.00"> </text>
<text text-anchor="start" x="751.5" y="-446.3" font-family="arial" font-size="14.00"> &#160;&#160;&#160;&#160;1:YE &#160;&#160;&#160;</text>
<text text-anchor="start" x="823.5" y="-446.3" font-family="arial" font-size="14.00">L2:1:LPWR</text>
<polygon fill="#000000" stroke="transparent" points="739,-438.5 739,-440.5 897,-440.5 897,-438.5 739,-438.5"/>
<polygon fill="#ffff00" stroke="transparent" points="739,-436.5 739,-438.5 897,-438.5 897,-436.5 739,-436.5"/>
<polygon fill="#000000" stroke="transparent" points="739,-434.5 739,-436.5 897,-436.5 897,-434.5 739,-434.5"/>
<text text-anchor="start" x="749" y="-421.3" font-family="arial" font-size="14.00"> &#160;&#160;&#160;&#160;2:WH &#160;&#160;&#160;</text>
<text text-anchor="start" x="822" y="-421.3" font-family="arial" font-size="14.00">L2:2:HPWR</text>
<polygon fill="#000000" stroke="transparent" points="739,-413.5 739,-415.5 897,-415.5 897,-413.5 739,-413.5"/>
<polygon fill="#ffffff" stroke="transparent" points="739,-411.5 739,-413.5 897,-413.5 897,-411.5 739,-411.5"/>
<polygon fill="#000000" stroke="transparent" points="739,-409.5 739,-411.5 897,-411.5 897,-409.5 739,-409.5"/>
<text text-anchor="start" x="751.5" y="-396.3" font-family="arial" font-size="14.00"> &#160;&#160;&#160;&#160;3:BK &#160;&#160;&#160;</text>
<text text-anchor="start" x="828" y="-396.3" font-family="arial" font-size="14.00">L2:3:GND</text>
<polygon fill="#000000" stroke="transparent" points="739,-388.5 739,-390.5 897,-390.5 897,-388.5 739,-388.5"/>
<polygon fill="#000000" stroke="transparent" points="739,-386.5 739,-388.5 897,-388.5 897,-386.5 739,-386.5"/>
<polygon fill="#000000" stroke="transparent" points="739,-384.5 739,-386.5 897,-386.5 897,-384.5 739,-384.5"/>
<text text-anchor="start" x="741" y="-371.3" font-family="arial" font-size="14.00"> </text>
</g>
<!-- S1&#45;&#45;W4 -->
<g id="edge11" class="edge">
<title>S1:e&#45;&#45;W4:w</title>
<path fill="none" stroke="#000000" stroke-width="2" d="M595,-446.5C658.04,-446.86 673.66,-435.86 739,-435.5"/>
<path fill="none" stroke="#ffff00" stroke-width="2" d="M595,-448.5C659.19,-448.5 674.81,-437.5 739,-437.5"/>
<path fill="none" stroke="#000000" stroke-width="2" d="M595,-450.5C660.34,-450.14 675.96,-439.14 739,-439.5"/>
</g>
<!-- W5 -->
<g id="node14" class="node">
<title>W5</title>
<polygon fill="#ffffff" stroke="black" points="897,-708 739,-708 739,-549 897,-549 897,-708"/>
<polygon fill="none" stroke="black" points="739,-684.5 739,-707.5 897,-707.5 897,-684.5 739,-684.5"/>
<text text-anchor="start" x="807" y="-692.3" font-family="arial" font-size="14.00">W5</text>
<polygon fill="none" stroke="black" points="739,-661.5 739,-684.5 771,-684.5 771,-661.5 739,-661.5"/>
<text text-anchor="start" x="747.5" y="-669.3" font-family="arial" font-size="14.00">3x</text>
<polygon fill="none" stroke="black" points="771,-661.5 771,-684.5 840,-684.5 840,-661.5 771,-661.5"/>
<text text-anchor="start" x="779.5" y="-669.3" font-family="arial" font-size="14.00">18 AWG</text>
<polygon fill="none" stroke="black" points="840,-661.5 840,-684.5 897,-684.5 897,-661.5 840,-661.5"/>
<text text-anchor="start" x="848" y="-669.3" font-family="arial" font-size="14.00">72.0 in</text>
<text text-anchor="start" x="741" y="-648.3" font-family="arial" font-size="14.00"> </text>
<text text-anchor="start" x="751.5" y="-629.3" font-family="arial" font-size="14.00"> &#160;&#160;&#160;&#160;1:YE &#160;&#160;&#160;</text>
<text text-anchor="start" x="823.5" y="-629.3" font-family="arial" font-size="14.00">L3:1:LPWR</text>
<polygon fill="#000000" stroke="transparent" points="739,-621.5 739,-623.5 897,-623.5 897,-621.5 739,-621.5"/>
<polygon fill="#ffff00" stroke="transparent" points="739,-619.5 739,-621.5 897,-621.5 897,-619.5 739,-619.5"/>
<polygon fill="#000000" stroke="transparent" points="739,-617.5 739,-619.5 897,-619.5 897,-617.5 739,-617.5"/>
<text text-anchor="start" x="749" y="-604.3" font-family="arial" font-size="14.00"> &#160;&#160;&#160;&#160;2:WH &#160;&#160;&#160;</text>
<text text-anchor="start" x="822" y="-604.3" font-family="arial" font-size="14.00">L3:2:HPWR</text>
<polygon fill="#000000" stroke="transparent" points="739,-596.5 739,-598.5 897,-598.5 897,-596.5 739,-596.5"/>
<polygon fill="#ffffff" stroke="transparent" points="739,-594.5 739,-596.5 897,-596.5 897,-594.5 739,-594.5"/>
<polygon fill="#000000" stroke="transparent" points="739,-592.5 739,-594.5 897,-594.5 897,-592.5 739,-592.5"/>
<text text-anchor="start" x="751.5" y="-579.3" font-family="arial" font-size="14.00"> &#160;&#160;&#160;&#160;3:BK &#160;&#160;&#160;</text>
<text text-anchor="start" x="828" y="-579.3" font-family="arial" font-size="14.00">L3:3:GND</text>
<polygon fill="#000000" stroke="transparent" points="739,-571.5 739,-573.5 897,-573.5 897,-571.5 739,-571.5"/>
<polygon fill="#000000" stroke="transparent" points="739,-569.5 739,-571.5 897,-571.5 897,-569.5 739,-569.5"/>
<polygon fill="#000000" stroke="transparent" points="739,-567.5 739,-569.5 897,-569.5 897,-567.5 739,-567.5"/>
<text text-anchor="start" x="741" y="-554.3" font-family="arial" font-size="14.00"> </text>
</g>
<!-- S1&#45;&#45;W5 -->
<g id="edge17" class="edge">
<title>S1:e&#45;&#45;W5:w</title>
<path fill="none" stroke="#000000" stroke-width="2" d="M595,-446.5C696.6,-449.11 641.21,-621.11 739,-618.5"/>
<path fill="none" stroke="#ffff00" stroke-width="2" d="M595,-448.5C694.7,-448.5 639.3,-620.5 739,-620.5"/>
<path fill="none" stroke="#000000" stroke-width="2" d="M595,-450.5C692.79,-447.89 637.4,-619.89 739,-622.5"/>
</g>
<!-- X2 -->
<g id="node3" class="node">
<title>X2</title>
<polygon fill="#ffffff" stroke="black" points="80,-346.5 0,-346.5 0,-300.5 80,-300.5 80,-346.5"/>
<polygon fill="none" stroke="black" points="0,-323.5 0,-346.5 80,-346.5 80,-323.5 0,-323.5"/>
<text text-anchor="start" x="31.5" y="-331.3" font-family="arial" font-size="14.00">X2</text>
<polygon fill="none" stroke="black" points="0,-300.5 0,-323.5 80,-323.5 80,-300.5 0,-300.5"/>
<text text-anchor="start" x="4" y="-308.3" font-family="arial" font-size="14.00">page_break</text>
</g>
<!-- X2&#45;&#45;W1 -->
<g id="edge3" class="edge">
<title>X2:e&#45;&#45;W1:w</title>
<path fill="none" stroke="#000000" stroke-width="2" d="M80,-321.5C157.23,-323.65 150.76,-412.65 224,-410.5"/>
<path fill="none" stroke="#ffffff" stroke-width="2" d="M80,-323.5C155.24,-323.5 148.76,-412.5 224,-412.5"/>
<path fill="none" stroke="#000000" stroke-width="2" d="M80,-325.5C153.24,-323.35 146.77,-412.35 224,-414.5"/>
</g>
<!-- W2 -->
<g id="node11" class="node">
<title>W2</title>
<polygon fill="#ffffff" stroke="black" points="356,-366 224,-366 224,-257 356,-257 356,-366"/>
<polygon fill="none" stroke="black" points="224,-342.5 224,-365.5 356,-365.5 356,-342.5 224,-342.5"/>
<text text-anchor="start" x="279" y="-350.3" font-family="arial" font-size="14.00">W2</text>
<polygon fill="none" stroke="black" points="224,-319.5 224,-342.5 247,-342.5 247,-319.5 224,-319.5"/>
<text text-anchor="start" x="228" y="-327.3" font-family="arial" font-size="14.00">1x</text>
<polygon fill="none" stroke="black" points="247,-319.5 247,-342.5 307,-342.5 307,-319.5 247,-319.5"/>
<text text-anchor="start" x="251" y="-327.3" font-family="arial" font-size="14.00">14 AWG</text>
<polygon fill="none" stroke="black" points="307,-319.5 307,-342.5 356,-342.5 356,-319.5 307,-319.5"/>
<text text-anchor="start" x="311" y="-327.3" font-family="arial" font-size="14.00">72.0 in</text>
<text text-anchor="start" x="243" y="-306.3" font-family="arial" font-size="14.00"> </text>
<text text-anchor="start" x="231" y="-287.3" font-family="arial" font-size="14.00">X2:1</text>
<text text-anchor="start" x="272.5" y="-287.3" font-family="arial" font-size="14.00"> &#160;&#160;&#160;&#160;1:BK &#160;&#160;&#160;</text>
<polygon fill="#000000" stroke="transparent" points="224,-279.5 224,-281.5 356,-281.5 356,-279.5 224,-279.5"/>
<polygon fill="#000000" stroke="transparent" points="224,-277.5 224,-279.5 356,-279.5 356,-277.5 224,-277.5"/>
<polygon fill="#000000" stroke="transparent" points="224,-275.5 224,-277.5 356,-277.5 356,-275.5 224,-275.5"/>
<text text-anchor="start" x="243" y="-262.3" font-family="arial" font-size="14.00"> </text>
</g>
<!-- X2&#45;&#45;W2 -->
<g id="edge5" class="edge">
<title>X2:e&#45;&#45;W2:w</title>
<path fill="none" stroke="#000000" stroke-width="2" d="M80,-321.5C145.1,-323.07 154.99,-278.07 224,-276.5"/>
<path fill="none" stroke="#000000" stroke-width="2" d="M80,-323.5C147.05,-323.5 156.95,-278.5 224,-278.5"/>
<path fill="none" stroke="#000000" stroke-width="2" d="M80,-325.5C149.01,-323.93 158.9,-278.93 224,-280.5"/>
</g>
<!-- S2 -->
<g id="node4" class="node">
<title>S2</title>
<polygon fill="#ffffff" stroke="black" points="595,-413 500,-413 500,-390 595,-390 595,-413"/>
<polygon fill="none" stroke="black" points="500.5,-389.5 500.5,-412.5 543.5,-412.5 543.5,-389.5 500.5,-389.5"/>
<text text-anchor="start" x="504.5" y="-397.3" font-family="arial" font-size="14.00">splice</text>
<polygon fill="none" stroke="black" points="543.5,-389.5 543.5,-412.5 595.5,-412.5 595.5,-389.5 543.5,-389.5"/>
<text text-anchor="start" x="547.5" y="-397.3" font-family="arial" font-size="14.00">14 awg</text>
</g>
<!-- W3 -->
<g id="node12" class="node">
<title>W3</title>
<polygon fill="#ffffff" stroke="black" points="897,-159 739,-159 739,0 897,0 897,-159"/>
<polygon fill="none" stroke="black" points="739,-135.5 739,-158.5 897,-158.5 897,-135.5 739,-135.5"/>
<text text-anchor="start" x="807" y="-143.3" font-family="arial" font-size="14.00">W3</text>
<polygon fill="none" stroke="black" points="739,-112.5 739,-135.5 771,-135.5 771,-112.5 739,-112.5"/>
<text text-anchor="start" x="747.5" y="-120.3" font-family="arial" font-size="14.00">3x</text>
<polygon fill="none" stroke="black" points="771,-112.5 771,-135.5 840,-135.5 840,-112.5 771,-112.5"/>
<text text-anchor="start" x="779.5" y="-120.3" font-family="arial" font-size="14.00">18 AWG</text>
<polygon fill="none" stroke="black" points="840,-112.5 840,-135.5 897,-135.5 897,-112.5 840,-112.5"/>
<text text-anchor="start" x="848" y="-120.3" font-family="arial" font-size="14.00">72.0 in</text>
<text text-anchor="start" x="741" y="-99.3" font-family="arial" font-size="14.00"> </text>
<text text-anchor="start" x="751.5" y="-80.3" font-family="arial" font-size="14.00"> &#160;&#160;&#160;&#160;1:YE &#160;&#160;&#160;</text>
<polygon fill="#000000" stroke="transparent" points="739,-72.5 739,-74.5 897,-74.5 897,-72.5 739,-72.5"/>
<polygon fill="#ffff00" stroke="transparent" points="739,-70.5 739,-72.5 897,-72.5 897,-70.5 739,-70.5"/>
<polygon fill="#000000" stroke="transparent" points="739,-68.5 739,-70.5 897,-70.5 897,-68.5 739,-68.5"/>
<text text-anchor="start" x="749" y="-55.3" font-family="arial" font-size="14.00"> &#160;&#160;&#160;&#160;2:WH &#160;&#160;&#160;</text>
<text text-anchor="start" x="822" y="-55.3" font-family="arial" font-size="14.00">L1:2:HPWR</text>
<polygon fill="#000000" stroke="transparent" points="739,-47.5 739,-49.5 897,-49.5 897,-47.5 739,-47.5"/>
<polygon fill="#ffffff" stroke="transparent" points="739,-45.5 739,-47.5 897,-47.5 897,-45.5 739,-45.5"/>
<polygon fill="#000000" stroke="transparent" points="739,-43.5 739,-45.5 897,-45.5 897,-43.5 739,-43.5"/>
<text text-anchor="start" x="751.5" y="-30.3" font-family="arial" font-size="14.00"> &#160;&#160;&#160;&#160;3:BK &#160;&#160;&#160;</text>
<text text-anchor="start" x="828" y="-30.3" font-family="arial" font-size="14.00">L1:3:GND</text>
<polygon fill="#000000" stroke="transparent" points="739,-22.5 739,-24.5 897,-24.5 897,-22.5 739,-22.5"/>
<polygon fill="#000000" stroke="transparent" points="739,-20.5 739,-22.5 897,-22.5 897,-20.5 739,-20.5"/>
<polygon fill="#000000" stroke="transparent" points="739,-18.5 739,-20.5 897,-20.5 897,-18.5 739,-18.5"/>
<text text-anchor="start" x="741" y="-5.3" font-family="arial" font-size="14.00"> </text>
</g>
<!-- S2&#45;&#45;W3 -->
<g id="edge7" class="edge">
<title>S2:e&#45;&#45;W3:w</title>
<path fill="none" stroke="#000000" stroke-width="2" d="M595,-399.5C763.51,-402.47 566.99,-47.47 739,-44.5"/>
<path fill="none" stroke="#ffffff" stroke-width="2" d="M595,-401.5C765.26,-401.5 568.74,-46.5 739,-46.5"/>
<path fill="none" stroke="#000000" stroke-width="2" d="M595,-403.5C767.01,-400.53 570.49,-45.53 739,-48.5"/>
</g>
<!-- S2&#45;&#45;W4 -->
<g id="edge13" class="edge">
<title>S2:e&#45;&#45;W4:w</title>
<path fill="none" stroke="#000000" stroke-width="2" d="M595,-399.5C660.34,-399.86 675.96,-410.86 739,-410.5"/>
<path fill="none" stroke="#ffffff" stroke-width="2" d="M595,-401.5C659.19,-401.5 674.81,-412.5 739,-412.5"/>
<path fill="none" stroke="#000000" stroke-width="2" d="M595,-403.5C658.04,-403.14 673.66,-414.14 739,-414.5"/>
</g>
<!-- S2&#45;&#45;W5 -->
<g id="edge19" class="edge">
<title>S2:e&#45;&#45;W5:w</title>
<path fill="none" stroke="#000000" stroke-width="2" d="M595,-399.5C704.26,-402.19 633.5,-596.19 739,-593.5"/>
<path fill="none" stroke="#ffffff" stroke-width="2" d="M595,-401.5C702.38,-401.5 631.62,-595.5 739,-595.5"/>
<path fill="none" stroke="#000000" stroke-width="2" d="M595,-403.5C700.5,-400.81 629.74,-594.81 739,-597.5"/>
</g>
<!-- W6 -->
<g id="node15" class="node">
<title>W6</title>
<polygon fill="#ffffff" stroke="black" points="897,-342 739,-342 739,-183 897,-183 897,-342"/>
<polygon fill="none" stroke="black" points="739,-318.5 739,-341.5 897,-341.5 897,-318.5 739,-318.5"/>
<text text-anchor="start" x="807" y="-326.3" font-family="arial" font-size="14.00">W6</text>
<polygon fill="none" stroke="black" points="739,-295.5 739,-318.5 771,-318.5 771,-295.5 739,-295.5"/>
<text text-anchor="start" x="747.5" y="-303.3" font-family="arial" font-size="14.00">3x</text>
<polygon fill="none" stroke="black" points="771,-295.5 771,-318.5 840,-318.5 840,-295.5 771,-295.5"/>
<text text-anchor="start" x="779.5" y="-303.3" font-family="arial" font-size="14.00">18 AWG</text>
<polygon fill="none" stroke="black" points="840,-295.5 840,-318.5 897,-318.5 897,-295.5 840,-295.5"/>
<text text-anchor="start" x="848" y="-303.3" font-family="arial" font-size="14.00">72.0 in</text>
<text text-anchor="start" x="741" y="-282.3" font-family="arial" font-size="14.00"> </text>
<text text-anchor="start" x="751.5" y="-263.3" font-family="arial" font-size="14.00"> &#160;&#160;&#160;&#160;1:YE &#160;&#160;&#160;</text>
<polygon fill="#000000" stroke="transparent" points="739,-255.5 739,-257.5 897,-257.5 897,-255.5 739,-255.5"/>
<polygon fill="#ffff00" stroke="transparent" points="739,-253.5 739,-255.5 897,-255.5 897,-253.5 739,-253.5"/>
<polygon fill="#000000" stroke="transparent" points="739,-251.5 739,-253.5 897,-253.5 897,-251.5 739,-251.5"/>
<text text-anchor="start" x="749" y="-238.3" font-family="arial" font-size="14.00"> &#160;&#160;&#160;&#160;2:WH &#160;&#160;&#160;</text>
<text text-anchor="start" x="822" y="-238.3" font-family="arial" font-size="14.00">L4:2:HPWR</text>
<polygon fill="#000000" stroke="transparent" points="739,-230.5 739,-232.5 897,-232.5 897,-230.5 739,-230.5"/>
<polygon fill="#ffffff" stroke="transparent" points="739,-228.5 739,-230.5 897,-230.5 897,-228.5 739,-228.5"/>
<polygon fill="#000000" stroke="transparent" points="739,-226.5 739,-228.5 897,-228.5 897,-226.5 739,-226.5"/>
<text text-anchor="start" x="751.5" y="-213.3" font-family="arial" font-size="14.00"> &#160;&#160;&#160;&#160;3:BK &#160;&#160;&#160;</text>
<text text-anchor="start" x="828" y="-213.3" font-family="arial" font-size="14.00">L4:3:GND</text>
<polygon fill="#000000" stroke="transparent" points="739,-205.5 739,-207.5 897,-207.5 897,-205.5 739,-205.5"/>
<polygon fill="#000000" stroke="transparent" points="739,-203.5 739,-205.5 897,-205.5 897,-203.5 739,-203.5"/>
<polygon fill="#000000" stroke="transparent" points="739,-201.5 739,-203.5 897,-203.5 897,-201.5 739,-201.5"/>
<text text-anchor="start" x="741" y="-188.3" font-family="arial" font-size="14.00"> </text>
</g>
<!-- S2&#45;&#45;W6 -->
<g id="edge23" class="edge">
<title>S2:e&#45;&#45;W6:w</title>
<path fill="none" stroke="#000000" stroke-width="2" d="M595,-399.5C692.79,-402.11 637.4,-230.11 739,-227.5"/>
<path fill="none" stroke="#ffffff" stroke-width="2" d="M595,-401.5C694.7,-401.5 639.3,-229.5 739,-229.5"/>
<path fill="none" stroke="#000000" stroke-width="2" d="M595,-403.5C696.6,-400.89 641.21,-228.89 739,-231.5"/>
</g>
<!-- S3 -->
<g id="node5" class="node">
<title>S3</title>
<polygon fill="#ffffff" stroke="black" points="595,-290 500,-290 500,-267 595,-267 595,-290"/>
<polygon fill="none" stroke="black" points="500.5,-266.5 500.5,-289.5 543.5,-289.5 543.5,-266.5 500.5,-266.5"/>
<text text-anchor="start" x="504.5" y="-274.3" font-family="arial" font-size="14.00">splice</text>
<polygon fill="none" stroke="black" points="543.5,-266.5 543.5,-289.5 595.5,-289.5 595.5,-266.5 543.5,-266.5"/>
<text text-anchor="start" x="547.5" y="-274.3" font-family="arial" font-size="14.00">14 awg</text>
</g>
<!-- S3&#45;&#45;W3 -->
<g id="edge9" class="edge">
<title>S3:e&#45;&#45;W3:w</title>
<path fill="none" stroke="#000000" stroke-width="2" d="M595,-276.5C724.11,-279.33 606.25,-22.33 739,-19.5"/>
<path fill="none" stroke="#000000" stroke-width="2" d="M595,-278.5C725.93,-278.5 608.07,-21.5 739,-21.5"/>
<path fill="none" stroke="#000000" stroke-width="2" d="M595,-280.5C727.75,-277.67 609.89,-20.67 739,-23.5"/>
</g>
<!-- S3&#45;&#45;W4 -->
<g id="edge15" class="edge">
<title>S3:e&#45;&#45;W4:w</title>
<path fill="none" stroke="#000000" stroke-width="2" d="M595,-276.5C677.24,-278.8 660.71,-387.8 739,-385.5"/>
<path fill="none" stroke="#000000" stroke-width="2" d="M595,-278.5C675.27,-278.5 658.73,-387.5 739,-387.5"/>
<path fill="none" stroke="#000000" stroke-width="2" d="M595,-280.5C673.29,-278.2 656.76,-387.2 739,-389.5"/>
</g>
<!-- S3&#45;&#45;W5 -->
<g id="edge21" class="edge">
<title>S3:e&#45;&#45;W5:w</title>
<path fill="none" stroke="#000000" stroke-width="2" d="M595,-276.5C741.49,-279.39 596.09,-571.39 739,-568.5"/>
<path fill="none" stroke="#000000" stroke-width="2" d="M595,-278.5C739.7,-278.5 594.3,-570.5 739,-570.5"/>
<path fill="none" stroke="#000000" stroke-width="2" d="M595,-280.5C737.91,-277.61 592.51,-569.61 739,-572.5"/>
</g>
<!-- S3&#45;&#45;W6 -->
<g id="edge25" class="edge">
<title>S3:e&#45;&#45;W6:w</title>
<path fill="none" stroke="#000000" stroke-width="2" d="M595,-276.5C664.96,-278.5 665.04,-204.5 739,-202.5"/>
<path fill="none" stroke="#000000" stroke-width="2" d="M595,-278.5C666.96,-278.5 667.04,-204.5 739,-204.5"/>
<path fill="none" stroke="#000000" stroke-width="2" d="M595,-280.5C668.96,-278.5 669.04,-204.5 739,-206.5"/>
</g>
<!-- L1 -->
<g id="node6" class="node">
<title>L1</title>
<polygon fill="#ffffff" stroke="black" points="1231,-215 1041,-215 1041,-100 1231,-100 1231,-215"/>
<polygon fill="none" stroke="black" points="1041,-191.5 1041,-214.5 1231,-214.5 1231,-191.5 1041,-191.5"/>
<text text-anchor="start" x="1128" y="-199.3" font-family="arial" font-size="14.00">L1</text>
<polygon fill="none" stroke="black" points="1041,-168.5 1041,-191.5 1142,-191.5 1142,-168.5 1041,-168.5"/>
<text text-anchor="start" x="1045" y="-176.3" font-family="arial" font-size="14.00">5.75&quot; Headlight</text>
<polygon fill="none" stroke="black" points="1142,-168.5 1142,-191.5 1192,-191.5 1192,-168.5 1142,-168.5"/>
<text text-anchor="start" x="1146" y="-176.3" font-family="arial" font-size="14.00">female</text>
<polygon fill="none" stroke="black" points="1192,-168.5 1192,-191.5 1231,-191.5 1231,-168.5 1192,-168.5"/>
<text text-anchor="start" x="1196" y="-176.3" font-family="arial" font-size="14.00">3&#45;pin</text>
<polygon fill="none" stroke="black" points="1041,-145.5 1041,-168.5 1119,-168.5 1119,-145.5 1041,-145.5"/>
<text text-anchor="start" x="1076" y="-153.3" font-family="arial" font-size="14.00">1</text>
<polygon fill="none" stroke="black" points="1119,-145.5 1119,-168.5 1231,-168.5 1231,-145.5 1119,-145.5"/>
<text text-anchor="start" x="1155" y="-153.3" font-family="arial" font-size="14.00">LPWR</text>
<polygon fill="none" stroke="black" points="1041,-122.5 1041,-145.5 1119,-145.5 1119,-122.5 1041,-122.5"/>
<text text-anchor="start" x="1076" y="-130.3" font-family="arial" font-size="14.00">2</text>
<polygon fill="none" stroke="black" points="1119,-122.5 1119,-145.5 1231,-145.5 1231,-122.5 1119,-122.5"/>
<text text-anchor="start" x="1153.5" y="-130.3" font-family="arial" font-size="14.00">HPWR</text>
<polygon fill="none" stroke="black" points="1041,-99.5 1041,-122.5 1119,-122.5 1119,-99.5 1041,-99.5"/>
<text text-anchor="start" x="1076" y="-107.3" font-family="arial" font-size="14.00">3</text>
<polygon fill="none" stroke="black" points="1119,-99.5 1119,-122.5 1231,-122.5 1231,-99.5 1119,-99.5"/>
<text text-anchor="start" x="1159.5" y="-107.3" font-family="arial" font-size="14.00">GND</text>
</g>
<!-- L2 -->
<g id="node7" class="node">
<title>L2</title>
<polygon fill="#ffffff" stroke="black" points="1231,-493 1041,-493 1041,-378 1231,-378 1231,-493"/>
<polygon fill="none" stroke="black" points="1041,-469.5 1041,-492.5 1231,-492.5 1231,-469.5 1041,-469.5"/>
<text text-anchor="start" x="1128" y="-477.3" font-family="arial" font-size="14.00">L2</text>
<polygon fill="none" stroke="black" points="1041,-446.5 1041,-469.5 1142,-469.5 1142,-446.5 1041,-446.5"/>
<text text-anchor="start" x="1045" y="-454.3" font-family="arial" font-size="14.00">5.75&quot; Headlight</text>
<polygon fill="none" stroke="black" points="1142,-446.5 1142,-469.5 1192,-469.5 1192,-446.5 1142,-446.5"/>
<text text-anchor="start" x="1146" y="-454.3" font-family="arial" font-size="14.00">female</text>
<polygon fill="none" stroke="black" points="1192,-446.5 1192,-469.5 1231,-469.5 1231,-446.5 1192,-446.5"/>
<text text-anchor="start" x="1196" y="-454.3" font-family="arial" font-size="14.00">3&#45;pin</text>
<polygon fill="none" stroke="black" points="1041,-423.5 1041,-446.5 1119,-446.5 1119,-423.5 1041,-423.5"/>
<text text-anchor="start" x="1076" y="-431.3" font-family="arial" font-size="14.00">1</text>
<polygon fill="none" stroke="black" points="1119,-423.5 1119,-446.5 1231,-446.5 1231,-423.5 1119,-423.5"/>
<text text-anchor="start" x="1155" y="-431.3" font-family="arial" font-size="14.00">LPWR</text>
<polygon fill="none" stroke="black" points="1041,-400.5 1041,-423.5 1119,-423.5 1119,-400.5 1041,-400.5"/>
<text text-anchor="start" x="1076" y="-408.3" font-family="arial" font-size="14.00">2</text>
<polygon fill="none" stroke="black" points="1119,-400.5 1119,-423.5 1231,-423.5 1231,-400.5 1119,-400.5"/>
<text text-anchor="start" x="1153.5" y="-408.3" font-family="arial" font-size="14.00">HPWR</text>
<polygon fill="none" stroke="black" points="1041,-377.5 1041,-400.5 1119,-400.5 1119,-377.5 1041,-377.5"/>
<text text-anchor="start" x="1076" y="-385.3" font-family="arial" font-size="14.00">3</text>
<polygon fill="none" stroke="black" points="1119,-377.5 1119,-400.5 1231,-400.5 1231,-377.5 1119,-377.5"/>
<text text-anchor="start" x="1159.5" y="-385.3" font-family="arial" font-size="14.00">GND</text>
</g>
<!-- L3 -->
<g id="node8" class="node">
<title>L3</title>
<polygon fill="#ffffff" stroke="black" points="1231,-632 1041,-632 1041,-517 1231,-517 1231,-632"/>
<polygon fill="none" stroke="black" points="1041,-608.5 1041,-631.5 1231,-631.5 1231,-608.5 1041,-608.5"/>
<text text-anchor="start" x="1128" y="-616.3" font-family="arial" font-size="14.00">L3</text>
<polygon fill="none" stroke="black" points="1041,-585.5 1041,-608.5 1142,-608.5 1142,-585.5 1041,-585.5"/>
<text text-anchor="start" x="1045" y="-593.3" font-family="arial" font-size="14.00">5.75&quot; Headlight</text>
<polygon fill="none" stroke="black" points="1142,-585.5 1142,-608.5 1192,-608.5 1192,-585.5 1142,-585.5"/>
<text text-anchor="start" x="1146" y="-593.3" font-family="arial" font-size="14.00">female</text>
<polygon fill="none" stroke="black" points="1192,-585.5 1192,-608.5 1231,-608.5 1231,-585.5 1192,-585.5"/>
<text text-anchor="start" x="1196" y="-593.3" font-family="arial" font-size="14.00">3&#45;pin</text>
<polygon fill="none" stroke="black" points="1041,-562.5 1041,-585.5 1119,-585.5 1119,-562.5 1041,-562.5"/>
<text text-anchor="start" x="1076" y="-570.3" font-family="arial" font-size="14.00">1</text>
<polygon fill="none" stroke="black" points="1119,-562.5 1119,-585.5 1231,-585.5 1231,-562.5 1119,-562.5"/>
<text text-anchor="start" x="1155" y="-570.3" font-family="arial" font-size="14.00">LPWR</text>
<polygon fill="none" stroke="black" points="1041,-539.5 1041,-562.5 1119,-562.5 1119,-539.5 1041,-539.5"/>
<text text-anchor="start" x="1076" y="-547.3" font-family="arial" font-size="14.00">2</text>
<polygon fill="none" stroke="black" points="1119,-539.5 1119,-562.5 1231,-562.5 1231,-539.5 1119,-539.5"/>
<text text-anchor="start" x="1153.5" y="-547.3" font-family="arial" font-size="14.00">HPWR</text>
<polygon fill="none" stroke="black" points="1041,-516.5 1041,-539.5 1119,-539.5 1119,-516.5 1041,-516.5"/>
<text text-anchor="start" x="1076" y="-524.3" font-family="arial" font-size="14.00">3</text>
<polygon fill="none" stroke="black" points="1119,-516.5 1119,-539.5 1231,-539.5 1231,-516.5 1119,-516.5"/>
<text text-anchor="start" x="1159.5" y="-524.3" font-family="arial" font-size="14.00">GND</text>
</g>
<!-- L4 -->
<g id="node9" class="node">
<title>L4</title>
<polygon fill="#ffffff" stroke="black" points="1231,-354 1041,-354 1041,-239 1231,-239 1231,-354"/>
<polygon fill="none" stroke="black" points="1041,-330.5 1041,-353.5 1231,-353.5 1231,-330.5 1041,-330.5"/>
<text text-anchor="start" x="1128" y="-338.3" font-family="arial" font-size="14.00">L4</text>
<polygon fill="none" stroke="black" points="1041,-307.5 1041,-330.5 1142,-330.5 1142,-307.5 1041,-307.5"/>
<text text-anchor="start" x="1045" y="-315.3" font-family="arial" font-size="14.00">5.75&quot; Headlight</text>
<polygon fill="none" stroke="black" points="1142,-307.5 1142,-330.5 1192,-330.5 1192,-307.5 1142,-307.5"/>
<text text-anchor="start" x="1146" y="-315.3" font-family="arial" font-size="14.00">female</text>
<polygon fill="none" stroke="black" points="1192,-307.5 1192,-330.5 1231,-330.5 1231,-307.5 1192,-307.5"/>
<text text-anchor="start" x="1196" y="-315.3" font-family="arial" font-size="14.00">3&#45;pin</text>
<polygon fill="none" stroke="black" points="1041,-284.5 1041,-307.5 1119,-307.5 1119,-284.5 1041,-284.5"/>
<text text-anchor="start" x="1076" y="-292.3" font-family="arial" font-size="14.00">1</text>
<polygon fill="none" stroke="black" points="1119,-284.5 1119,-307.5 1231,-307.5 1231,-284.5 1119,-284.5"/>
<text text-anchor="start" x="1155" y="-292.3" font-family="arial" font-size="14.00">LPWR</text>
<polygon fill="none" stroke="black" points="1041,-261.5 1041,-284.5 1119,-284.5 1119,-261.5 1041,-261.5"/>
<text text-anchor="start" x="1076" y="-269.3" font-family="arial" font-size="14.00">2</text>
<polygon fill="none" stroke="black" points="1119,-261.5 1119,-284.5 1231,-284.5 1231,-261.5 1119,-261.5"/>
<text text-anchor="start" x="1153.5" y="-269.3" font-family="arial" font-size="14.00">HPWR</text>
<polygon fill="none" stroke="black" points="1041,-238.5 1041,-261.5 1119,-261.5 1119,-238.5 1041,-238.5"/>
<text text-anchor="start" x="1076" y="-246.3" font-family="arial" font-size="14.00">3</text>
<polygon fill="none" stroke="black" points="1119,-238.5 1119,-261.5 1231,-261.5 1231,-238.5 1119,-238.5"/>
<text text-anchor="start" x="1159.5" y="-246.3" font-family="arial" font-size="14.00">GND</text>
</g>
<!-- W1&#45;&#45;S1 -->
<g id="edge2" class="edge">
<title>W1:e&#45;&#45;S1:w</title>
<path fill="none" stroke="#000000" stroke-width="2" d="M356,-435.5C421.34,-435.86 436.96,-446.86 500,-446.5"/>
<path fill="none" stroke="#ffff00" stroke-width="2" d="M356,-437.5C420.19,-437.5 435.81,-448.5 500,-448.5"/>
<path fill="none" stroke="#000000" stroke-width="2" d="M356,-439.5C419.04,-439.14 434.66,-450.14 500,-450.5"/>
</g>
<!-- W1&#45;&#45;S2 -->
<g id="edge4" class="edge">
<title>W1:e&#45;&#45;S2:w</title>
<path fill="none" stroke="#000000" stroke-width="2" d="M356,-410.5C419.04,-410.86 434.66,-399.86 500,-399.5"/>
<path fill="none" stroke="#ffffff" stroke-width="2" d="M356,-412.5C420.19,-412.5 435.81,-401.5 500,-401.5"/>
<path fill="none" stroke="#000000" stroke-width="2" d="M356,-414.5C421.34,-414.14 436.96,-403.14 500,-403.5"/>
</g>
<!-- W2&#45;&#45;S3 -->
<g id="edge6" class="edge">
<title>W2:e&#45;&#45;S3:w</title>
<path fill="none" stroke="#000000" stroke-width="2" d="M356,-276.5C420,-276.5 436,-276.5 500,-276.5"/>
<path fill="none" stroke="#000000" stroke-width="2" d="M356,-278.5C420,-278.5 436,-278.5 500,-278.5"/>
<path fill="none" stroke="#000000" stroke-width="2" d="M356,-280.5C420,-280.5 436,-280.5 500,-280.5"/>
</g>
<!-- W3&#45;&#45;L1 -->
<g id="edge8" class="edge">
<title>W3:e&#45;&#45;L1:w</title>
<path fill="none" stroke="#000000" stroke-width="2" d="M897,-44.5C973.39,-46.63 967.6,-133.63 1040,-131.5"/>
<path fill="none" stroke="#ffffff" stroke-width="2" d="M897,-46.5C971.39,-46.5 965.61,-133.5 1040,-133.5"/>
<path fill="none" stroke="#000000" stroke-width="2" d="M897,-48.5C969.4,-46.37 963.61,-133.37 1040,-135.5"/>
</g>
<!-- W3&#45;&#45;L1 -->
<g id="edge10" class="edge">
<title>W3:e&#45;&#45;L1:w</title>
<path fill="none" stroke="#000000" stroke-width="2" d="M897,-19.5C973.85,-21.65 967.13,-110.65 1040,-108.5"/>
<path fill="none" stroke="#000000" stroke-width="2" d="M897,-21.5C971.86,-21.5 965.14,-110.5 1040,-110.5"/>
<path fill="none" stroke="#000000" stroke-width="2" d="M897,-23.5C969.87,-21.35 963.15,-110.35 1040,-112.5"/>
</g>
<!-- W4&#45;&#45;L2 -->
<g id="edge12" class="edge">
<title>W4:e&#45;&#45;L2:w</title>
<path fill="none" stroke="#000000" stroke-width="2" d="M897,-435.5C960.2,-435.53 976.06,-432.53 1040,-432.5"/>
<path fill="none" stroke="#ffff00" stroke-width="2" d="M897,-437.5C960.57,-437.5 976.43,-434.5 1040,-434.5"/>
<path fill="none" stroke="#000000" stroke-width="2" d="M897,-439.5C960.94,-439.47 976.8,-436.47 1040,-436.5"/>
</g>
<!-- W4&#45;&#45;L2 -->
<g id="edge14" class="edge">
<title>W4:e&#45;&#45;L2:w</title>
<path fill="none" stroke="#000000" stroke-width="2" d="M897,-410.5C960.43,-410.5 976.32,-409.5 1040,-409.5"/>
<path fill="none" stroke="#ffffff" stroke-width="2" d="M897,-412.5C960.56,-412.5 976.44,-411.5 1040,-411.5"/>
<path fill="none" stroke="#000000" stroke-width="2" d="M897,-414.5C960.68,-414.5 976.57,-413.5 1040,-413.5"/>
</g>
<!-- W4&#45;&#45;L2 -->
<g id="edge16" class="edge">
<title>W4:e&#45;&#45;L2:w</title>
<path fill="none" stroke="#000000" stroke-width="2" d="M897,-385.5C960.68,-385.5 976.57,-386.5 1040,-386.5"/>
<path fill="none" stroke="#000000" stroke-width="2" d="M897,-387.5C960.56,-387.5 976.44,-388.5 1040,-388.5"/>
<path fill="none" stroke="#000000" stroke-width="2" d="M897,-389.5C960.43,-389.5 976.32,-390.5 1040,-390.5"/>
</g>
<!-- W5&#45;&#45;L3 -->
<g id="edge18" class="edge">
<title>W5:e&#45;&#45;L3:w</title>
<path fill="none" stroke="#000000" stroke-width="2" d="M897,-618.5C961.94,-620.12 971.14,-573.12 1040,-571.5"/>
<path fill="none" stroke="#ffff00" stroke-width="2" d="M897,-620.5C963.9,-620.5 973.1,-573.5 1040,-573.5"/>
<path fill="none" stroke="#000000" stroke-width="2" d="M897,-622.5C965.86,-620.88 975.06,-573.88 1040,-575.5"/>
</g>
<!-- W5&#45;&#45;L3 -->
<g id="edge20" class="edge">
<title>W5:e&#45;&#45;L3:w</title>
<path fill="none" stroke="#000000" stroke-width="2" d="M897,-593.5C961.67,-595.08 971.42,-550.08 1040,-548.5"/>
<path fill="none" stroke="#ffffff" stroke-width="2" d="M897,-595.5C963.63,-595.5 973.37,-550.5 1040,-550.5"/>
<path fill="none" stroke="#000000" stroke-width="2" d="M897,-597.5C965.58,-595.92 975.33,-550.92 1040,-552.5"/>
</g>
<!-- W5&#45;&#45;L3 -->
<g id="edge22" class="edge">
<title>W5:e&#45;&#45;L3:w</title>
<path fill="none" stroke="#000000" stroke-width="2" d="M897,-568.5C961.42,-570.04 971.69,-527.04 1040,-525.5"/>
<path fill="none" stroke="#000000" stroke-width="2" d="M897,-570.5C963.37,-570.5 973.63,-527.5 1040,-527.5"/>
<path fill="none" stroke="#000000" stroke-width="2" d="M897,-572.5C965.31,-570.96 975.58,-527.96 1040,-529.5"/>
</g>
<!-- W6&#45;&#45;L4 -->
<g id="edge24" class="edge">
<title>W6:e&#45;&#45;L4:w</title>
<path fill="none" stroke="#000000" stroke-width="2" d="M897,-227.5C965.31,-229.04 975.58,-272.04 1040,-270.5"/>
<path fill="none" stroke="#ffffff" stroke-width="2" d="M897,-229.5C963.37,-229.5 973.63,-272.5 1040,-272.5"/>
<path fill="none" stroke="#000000" stroke-width="2" d="M897,-231.5C961.42,-229.96 971.69,-272.96 1040,-274.5"/>
</g>
<!-- W6&#45;&#45;L4 -->
<g id="edge26" class="edge">
<title>W6:e&#45;&#45;L4:w</title>
<path fill="none" stroke="#000000" stroke-width="2" d="M897,-202.5C965.58,-204.08 975.33,-249.08 1040,-247.5"/>
<path fill="none" stroke="#000000" stroke-width="2" d="M897,-204.5C963.63,-204.5 973.37,-249.5 1040,-249.5"/>
<path fill="none" stroke="#000000" stroke-width="2" d="M897,-206.5C961.67,-204.92 971.42,-249.92 1040,-251.5"/>
</g>
</g>
</svg>
