<?xml version="1.0" encoding="UTF-8" standalone="no"?>
<!DOCTYPE svg PUBLIC "-//W3C//DTD SVG 1.1//EN"
 "http://www.w3.org/Graphics/SVG/1.1/DTD/svg11.dtd">
<!-- Generated by graphviz version 2.43.0 (0)
 -->
<!-- Title: %3 Pages: 1 -->
<svg width="1312pt" height="614pt"
 viewBox="0.00 0.00 1312.00 613.50" xmlns="http://www.w3.org/2000/svg" xmlns:xlink="http://www.w3.org/1999/xlink">
<g id="graph0" class="graph" transform="scale(1 1) rotate(0) translate(4 609.5)">
<title>%3</title>
<polygon fill="#ffffff" stroke="transparent" points="-4,4 -4,-609.5 1308,-609.5 1308,4 -4,4"/>
<!-- BAT+ -->
<g id="node1" class="node">
<title>BAT+</title>
<polygon fill="#ffffff" stroke="black" points="95,-278 0,-278 0,-232 95,-232 95,-278"/>
<polygon fill="none" stroke="black" points="0.5,-255 0.5,-278 95.5,-278 95.5,-255 0.5,-255"/>
<text text-anchor="start" x="31" y="-262.8" font-family="arial" font-size="14.00">BAT+</text>
<polygon fill="none" stroke="black" points="0.5,-232 0.5,-255 59.5,-255 59.5,-232 0.5,-232"/>
<text text-anchor="start" x="4.5" y="-239.8" font-family="arial" font-size="14.00">3/8 Ring</text>
<polygon fill="none" stroke="black" points="59.5,-232 59.5,-255 87.5,-255 87.5,-232 59.5,-232"/>
<text text-anchor="start" x="63.5" y="-239.8" font-family="arial" font-size="14.00">RD</text>
<polygon fill="#ff0000" stroke="transparent" points="87.5,-232 87.5,-255 95.5,-255 95.5,-232 87.5,-232"/>
<polygon fill="none" stroke="black" points="87.5,-232 87.5,-255 95.5,-255 95.5,-232 87.5,-232"/>
</g>
<!-- C1 -->
<g id="node12" class="node">
<title>C1</title>
<polygon fill="#ffffff" stroke="black" points="432,-342.5 261,-342.5 261,-233.5 432,-233.5 432,-342.5"/>
<polygon fill="none" stroke="black" points="261.5,-319 261.5,-342 432.5,-342 432.5,-319 261.5,-319"/>
<text text-anchor="start" x="338" y="-326.8" font-family="arial" font-size="14.00">C1</text>
<polygon fill="none" stroke="black" points="261.5,-296 261.5,-319 300.5,-319 300.5,-296 261.5,-296"/>
<text text-anchor="start" x="273.5" y="-303.8" font-family="arial" font-size="14.00">1x</text>
<polygon fill="none" stroke="black" points="300.5,-296 300.5,-319 368.5,-319 368.5,-296 300.5,-296"/>
<text text-anchor="start" x="312" y="-303.8" font-family="arial" font-size="14.00">0 AWG</text>
<polygon fill="none" stroke="black" points="368.5,-296 368.5,-319 432.5,-319 432.5,-296 368.5,-296"/>
<text text-anchor="start" x="380" y="-303.8" font-family="arial" font-size="14.00">12.0 in</text>
<text text-anchor="start" x="284.5" y="-282.8" font-family="arial" font-size="14.00"> </text>
<text text-anchor="start" x="263.5" y="-263.8" font-family="arial" font-size="14.00">BAT+:1</text>
<text text-anchor="start" x="313.5" y="-263.8" font-family="arial" font-size="14.00"> &#160;&#160;&#160;&#160;1:RD &#160;&#160;&#160;</text>
<text text-anchor="start" x="382.5" y="-263.8" font-family="arial" font-size="14.00">+BUS:1</text>
<polygon fill="#000000" stroke="transparent" points="261.5,-256 261.5,-258 432.5,-258 432.5,-256 261.5,-256"/>
<polygon fill="#ff0000" stroke="transparent" points="261.5,-254 261.5,-256 432.5,-256 432.5,-254 261.5,-254"/>
<polygon fill="#000000" stroke="transparent" points="261.5,-252 261.5,-254 432.5,-254 432.5,-252 261.5,-252"/>
<text text-anchor="start" x="284.5" y="-238.8" font-family="arial" font-size="14.00"> </text>
</g>
<!-- BAT+&#45;&#45;C1 -->
<g id="edge1" class="edge">
<title>BAT+:e&#45;&#45;C1:w</title>
<path fill="none" stroke="#000000" stroke-width="2" d="M95,-253C168.56,-253 186.94,-253 260.5,-253"/>
<path fill="none" stroke="#ff0000" stroke-width="2" d="M95,-255C168.56,-255 186.94,-255 260.5,-255"/>
<path fill="none" stroke="#000000" stroke-width="2" d="M95,-257C168.56,-257 186.94,-257 260.5,-257"/>
</g>
<!-- +BUS -->
<g id="node2" class="node">
<title>+BUS</title>
<polygon fill="#ffffff" stroke="black" points="742,-313.5 598,-313.5 598,-198.5 742,-198.5 742,-313.5"/>
<polygon fill="none" stroke="black" points="598,-290 598,-313 742,-313 742,-290 598,-290"/>
<text text-anchor="start" x="651.5" y="-297.8" font-family="arial" font-size="14.00">+BUS</text>
<polygon fill="none" stroke="black" points="598,-267 598,-290 703,-290 703,-267 598,-267"/>
<text text-anchor="start" x="602" y="-274.8" font-family="arial" font-size="14.00">Copper Bus Bar</text>
<polygon fill="none" stroke="black" points="703,-267 703,-290 742,-290 742,-267 703,-267"/>
<text text-anchor="start" x="707" y="-274.8" font-family="arial" font-size="14.00">3&#45;pin</text>
<polygon fill="none" stroke="black" points="598,-244 598,-267 670,-267 670,-244 598,-244"/>
<text text-anchor="start" x="630" y="-251.8" font-family="arial" font-size="14.00">1</text>
<polygon fill="none" stroke="black" points="670,-244 670,-267 742,-267 742,-244 670,-244"/>
<text text-anchor="start" x="702" y="-251.8" font-family="arial" font-size="14.00">1</text>
<polygon fill="none" stroke="black" points="598,-221 598,-244 670,-244 670,-221 598,-221"/>
<text text-anchor="start" x="630" y="-228.8" font-family="arial" font-size="14.00">2</text>
<polygon fill="none" stroke="black" points="670,-221 670,-244 742,-244 742,-221 670,-221"/>
<text text-anchor="start" x="702" y="-228.8" font-family="arial" font-size="14.00">2</text>
<polygon fill="none" stroke="black" points="598,-198 598,-221 670,-221 670,-198 598,-198"/>
<text text-anchor="start" x="630" y="-205.8" font-family="arial" font-size="14.00">3</text>
<polygon fill="none" stroke="black" points="670,-198 670,-221 742,-221 742,-198 670,-198"/>
<text text-anchor="start" x="702" y="-205.8" font-family="arial" font-size="14.00">3</text>
</g>
<!-- C3 -->
<g id="node14" class="node">
<title>C3</title>
<polygon fill="#ffffff" stroke="black" points="1064,-402.5 887,-402.5 887,-293.5 1064,-293.5 1064,-402.5"/>
<polygon fill="none" stroke="black" points="887.5,-379 887.5,-402 1064.5,-402 1064.5,-379 887.5,-379"/>
<text text-anchor="start" x="967" y="-386.8" font-family="arial" font-size="14.00">C3</text>
<polygon fill="none" stroke="black" points="887.5,-356 887.5,-379 928.5,-379 928.5,-356 887.5,-356"/>
<text text-anchor="start" x="900.5" y="-363.8" font-family="arial" font-size="14.00">1x</text>
<polygon fill="none" stroke="black" points="928.5,-356 928.5,-379 998.5,-379 998.5,-356 928.5,-356"/>
<text text-anchor="start" x="941" y="-363.8" font-family="arial" font-size="14.00">0 AWG</text>
<polygon fill="none" stroke="black" points="998.5,-356 998.5,-379 1064.5,-379 1064.5,-356 998.5,-356"/>
<text text-anchor="start" x="1011" y="-363.8" font-family="arial" font-size="14.00">72.0 in</text>
<text text-anchor="start" x="911.5" y="-342.8" font-family="arial" font-size="14.00"> </text>
<text text-anchor="start" x="889.5" y="-323.8" font-family="arial" font-size="14.00">+BUS:1</text>
<text text-anchor="start" x="941.5" y="-323.8" font-family="arial" font-size="14.00"> &#160;&#160;&#160;&#160;1:RD &#160;&#160;&#160;</text>
<text text-anchor="start" x="1010.5" y="-323.8" font-family="arial" font-size="14.00">Starter:1</text>
<polygon fill="#000000" stroke="transparent" points="887.5,-316 887.5,-318 1064.5,-318 1064.5,-316 887.5,-316"/>
<polygon fill="#ff0000" stroke="transparent" points="887.5,-314 887.5,-316 1064.5,-316 1064.5,-314 887.5,-314"/>
<polygon fill="#000000" stroke="transparent" points="887.5,-312 887.5,-314 1064.5,-314 1064.5,-312 887.5,-312"/>
<text text-anchor="start" x="911.5" y="-298.8" font-family="arial" font-size="14.00"> </text>
</g>
<!-- +BUS&#45;&#45;C3 -->
<g id="edge5" class="edge">
<title>+BUS:e&#45;&#45;C3:w</title>
<path fill="none" stroke="#000000" stroke-width="2" d="M742,-253C813.53,-254.82 818.95,-314.82 886.5,-313"/>
<path fill="none" stroke="#ff0000" stroke-width="2" d="M742,-255C811.54,-255 816.96,-315 886.5,-315"/>
<path fill="none" stroke="#000000" stroke-width="2" d="M742,-257C809.55,-255.18 814.97,-315.18 886.5,-317"/>
</g>
<!-- W1 -->
<g id="node16" class="node">
<title>W1</title>
<polygon fill="#ffffff" stroke="black" points="1056.5,-269 894.5,-269 894.5,-135 1056.5,-135 1056.5,-269"/>
<polygon fill="none" stroke="black" points="894.5,-246 894.5,-269 1056.5,-269 1056.5,-246 894.5,-246"/>
<text text-anchor="start" x="964.5" y="-253.8" font-family="arial" font-size="14.00">W1</text>
<polygon fill="none" stroke="black" points="894.5,-223 894.5,-246 927.5,-246 927.5,-223 894.5,-223"/>
<text text-anchor="start" x="903.5" y="-230.8" font-family="arial" font-size="14.00">2x</text>
<polygon fill="none" stroke="black" points="927.5,-223 927.5,-246 997.5,-246 997.5,-223 927.5,-223"/>
<text text-anchor="start" x="936.5" y="-230.8" font-family="arial" font-size="14.00">12 AWG</text>
<polygon fill="none" stroke="black" points="997.5,-223 997.5,-246 1056.5,-246 1056.5,-223 997.5,-223"/>
<text text-anchor="start" x="1006.5" y="-230.8" font-family="arial" font-size="14.00">12.0 in</text>
<text text-anchor="start" x="918.5" y="-209.8" font-family="arial" font-size="14.00"> </text>
<text text-anchor="start" x="896.5" y="-190.8" font-family="arial" font-size="14.00">+BUS:2</text>
<text text-anchor="start" x="948.5" y="-190.8" font-family="arial" font-size="14.00"> &#160;&#160;&#160;&#160;1:RD &#160;&#160;&#160;</text>
<text text-anchor="start" x="1017.5" y="-190.8" font-family="arial" font-size="14.00">FB+:1</text>
<polygon fill="#000000" stroke="transparent" points="894.5,-183 894.5,-185 1056.5,-185 1056.5,-183 894.5,-183"/>
<polygon fill="#ff0000" stroke="transparent" points="894.5,-181 894.5,-183 1056.5,-183 1056.5,-181 894.5,-181"/>
<polygon fill="#000000" stroke="transparent" points="894.5,-179 894.5,-181 1056.5,-181 1056.5,-179 894.5,-179"/>
<text text-anchor="start" x="898.5" y="-165.8" font-family="arial" font-size="14.00">&#45;BUS:1</text>
<text text-anchor="start" x="949" y="-165.8" font-family="arial" font-size="14.00"> &#160;&#160;&#160;&#160;2:BK &#160;&#160;&#160;</text>
<text text-anchor="start" x="1019" y="-165.8" font-family="arial" font-size="14.00">FB&#45;:1</text>
<polygon fill="#000000" stroke="transparent" points="894.5,-158 894.5,-160 1056.5,-160 1056.5,-158 894.5,-158"/>
<polygon fill="#000000" stroke="transparent" points="894.5,-156 894.5,-158 1056.5,-158 1056.5,-156 894.5,-156"/>
<polygon fill="#000000" stroke="transparent" points="894.5,-154 894.5,-156 1056.5,-156 1056.5,-154 894.5,-154"/>
<text text-anchor="start" x="918.5" y="-140.8" font-family="arial" font-size="14.00"> </text>
</g>
<!-- +BUS&#45;&#45;W1 -->
<g id="edge9" class="edge">
<title>+BUS:e&#45;&#45;W1:w</title>
<path fill="none" stroke="#000000" stroke-width="2" d="M742,-230C810.94,-231.62 820.63,-181.62 893.5,-180"/>
<path fill="none" stroke="#ff0000" stroke-width="2" d="M742,-232C812.91,-232 822.59,-182 893.5,-182"/>
<path fill="none" stroke="#000000" stroke-width="2" d="M742,-234C814.87,-232.38 824.56,-182.38 893.5,-184"/>
</g>
<!-- BAT&#45; -->
<g id="node3" class="node">
<title>BAT&#45;</title>
<polygon fill="#ffffff" stroke="black" points="94.5,-129 0.5,-129 0.5,-83 94.5,-83 94.5,-129"/>
<polygon fill="none" stroke="black" points="0.5,-106 0.5,-129 94.5,-129 94.5,-106 0.5,-106"/>
<text text-anchor="start" x="32.5" y="-113.8" font-family="arial" font-size="14.00">BAT&#45;</text>
<polygon fill="none" stroke="black" points="0.5,-83 0.5,-106 59.5,-106 59.5,-83 0.5,-83"/>
<text text-anchor="start" x="4.5" y="-90.8" font-family="arial" font-size="14.00">3/8 Ring</text>
<polygon fill="none" stroke="black" points="59.5,-83 59.5,-106 86.5,-106 86.5,-83 59.5,-83"/>
<text text-anchor="start" x="63.5" y="-90.8" font-family="arial" font-size="14.00">BK</text>
<polygon fill="#000000" stroke="transparent" points="86.5,-83 86.5,-106 94.5,-106 94.5,-83 86.5,-83"/>
<polygon fill="none" stroke="black" points="86.5,-83 86.5,-106 94.5,-106 94.5,-83 86.5,-83"/>
</g>
<!-- C2 -->
<g id="node13" class="node">
<title>C2</title>
<polygon fill="#ffffff" stroke="black" points="427,-193.5 266,-193.5 266,-84.5 427,-84.5 427,-193.5"/>
<polygon fill="none" stroke="black" points="266.5,-170 266.5,-193 427.5,-193 427.5,-170 266.5,-170"/>
<text text-anchor="start" x="338" y="-177.8" font-family="arial" font-size="14.00">C2</text>
<polygon fill="none" stroke="black" points="266.5,-147 266.5,-170 301.5,-170 301.5,-147 266.5,-147"/>
<text text-anchor="start" x="276.5" y="-154.8" font-family="arial" font-size="14.00">1x</text>
<polygon fill="none" stroke="black" points="301.5,-147 301.5,-170 366.5,-170 366.5,-147 301.5,-147"/>
<text text-anchor="start" x="311.5" y="-154.8" font-family="arial" font-size="14.00">0 AWG</text>
<polygon fill="none" stroke="black" points="366.5,-147 366.5,-170 427.5,-170 427.5,-147 366.5,-147"/>
<text text-anchor="start" x="376.5" y="-154.8" font-family="arial" font-size="14.00">12.0 in</text>
<text text-anchor="start" x="287" y="-133.8" font-family="arial" font-size="14.00"> </text>
<text text-anchor="start" x="268.5" y="-114.8" font-family="arial" font-size="14.00">BAT&#45;:1</text>
<text text-anchor="start" x="313.5" y="-114.8" font-family="arial" font-size="14.00"> &#160;&#160;&#160;&#160;1:BK &#160;&#160;&#160;</text>
<text text-anchor="start" x="381.5" y="-114.8" font-family="arial" font-size="14.00">&#45;BUS:1</text>
<polygon fill="#000000" stroke="transparent" points="266.5,-107 266.5,-109 427.5,-109 427.5,-107 266.5,-107"/>
<polygon fill="#000000" stroke="transparent" points="266.5,-105 266.5,-107 427.5,-107 427.5,-105 266.5,-105"/>
<polygon fill="#000000" stroke="transparent" points="266.5,-103 266.5,-105 427.5,-105 427.5,-103 266.5,-103"/>
<text text-anchor="start" x="287" y="-89.8" font-family="arial" font-size="14.00"> </text>
</g>
<!-- BAT&#45;&#45;&#45;C2 -->
<g id="edge3" class="edge">
<title>BAT&#45;:e&#45;&#45;C2:w</title>
<path fill="none" stroke="#000000" stroke-width="2" d="M95,-104C170.78,-104 189.72,-104 265.5,-104"/>
<path fill="none" stroke="#000000" stroke-width="2" d="M95,-106C170.78,-106 189.72,-106 265.5,-106"/>
<path fill="none" stroke="#000000" stroke-width="2" d="M95,-108C170.78,-108 189.72,-108 265.5,-108"/>
</g>
<!-- &#45;BUS -->
<g id="node4" class="node">
<title>&#45;BUS</title>
<polygon fill="#ffffff" stroke="black" points="742,-164.5 598,-164.5 598,-49.5 742,-49.5 742,-164.5"/>
<polygon fill="none" stroke="black" points="598,-141 598,-164 742,-164 742,-141 598,-141"/>
<text text-anchor="start" x="653.5" y="-148.8" font-family="arial" font-size="14.00">&#45;BUS</text>
<polygon fill="none" stroke="black" points="598,-118 598,-141 703,-141 703,-118 598,-118"/>
<text text-anchor="start" x="602" y="-125.8" font-family="arial" font-size="14.00">Copper Bus Bar</text>
<polygon fill="none" stroke="black" points="703,-118 703,-141 742,-141 742,-118 703,-118"/>
<text text-anchor="start" x="707" y="-125.8" font-family="arial" font-size="14.00">3&#45;pin</text>
<polygon fill="none" stroke="black" points="598,-95 598,-118 670,-118 670,-95 598,-95"/>
<text text-anchor="start" x="630" y="-102.8" font-family="arial" font-size="14.00">1</text>
<polygon fill="none" stroke="black" points="670,-95 670,-118 742,-118 742,-95 670,-95"/>
<text text-anchor="start" x="702" y="-102.8" font-family="arial" font-size="14.00">1</text>
<polygon fill="none" stroke="black" points="598,-72 598,-95 670,-95 670,-72 598,-72"/>
<text text-anchor="start" x="630" y="-79.8" font-family="arial" font-size="14.00">2</text>
<polygon fill="none" stroke="black" points="670,-72 670,-95 742,-95 742,-72 670,-72"/>
<text text-anchor="start" x="702" y="-79.8" font-family="arial" font-size="14.00">2</text>
<polygon fill="none" stroke="black" points="598,-49 598,-72 670,-72 670,-49 598,-49"/>
<text text-anchor="start" x="630" y="-56.8" font-family="arial" font-size="14.00">3</text>
<polygon fill="none" stroke="black" points="670,-49 670,-72 742,-72 742,-49 670,-49"/>
<text text-anchor="start" x="702" y="-56.8" font-family="arial" font-size="14.00">3</text>
</g>
<!-- &#45;BUS&#45;&#45;W1 -->
<g id="edge11" class="edge">
<title>&#45;BUS:e&#45;&#45;W1:w</title>
<path fill="none" stroke="#000000" stroke-width="2" d="M742,-104C815.01,-105.64 824.42,-156.64 893.5,-155"/>
<path fill="none" stroke="#000000" stroke-width="2" d="M742,-106C813.05,-106 822.45,-157 893.5,-157"/>
<path fill="none" stroke="#000000" stroke-width="2" d="M742,-108C811.08,-106.36 820.49,-157.36 893.5,-159"/>
</g>
<!-- C5 -->
<g id="node17" class="node">
<title>C5</title>
<polygon fill="#ffffff" stroke="black" points="1065,-110.5 886,-110.5 886,-1.5 1065,-1.5 1065,-110.5"/>
<polygon fill="none" stroke="black" points="886.5,-87 886.5,-110 1065.5,-110 1065.5,-87 886.5,-87"/>
<text text-anchor="start" x="967" y="-94.8" font-family="arial" font-size="14.00">C5</text>
<polygon fill="none" stroke="black" points="886.5,-64 886.5,-87 927.5,-87 927.5,-64 886.5,-64"/>
<text text-anchor="start" x="899.5" y="-71.8" font-family="arial" font-size="14.00">1x</text>
<polygon fill="none" stroke="black" points="927.5,-64 927.5,-87 998.5,-87 998.5,-64 927.5,-64"/>
<text text-anchor="start" x="940.5" y="-71.8" font-family="arial" font-size="14.00">0 AWG</text>
<polygon fill="none" stroke="black" points="998.5,-64 998.5,-87 1065.5,-87 1065.5,-64 998.5,-64"/>
<text text-anchor="start" x="1011.5" y="-71.8" font-family="arial" font-size="14.00">24.0 in</text>
<text text-anchor="start" x="908.5" y="-50.8" font-family="arial" font-size="14.00"> </text>
<text text-anchor="start" x="888.5" y="-31.8" font-family="arial" font-size="14.00">&#45;BUS:2</text>
<text text-anchor="start" x="936.5" y="-31.8" font-family="arial" font-size="14.00"> &#160;&#160;&#160;&#160;1:BK &#160;&#160;&#160;</text>
<text text-anchor="start" x="1004.5" y="-31.8" font-family="arial" font-size="14.00">Frame1:1</text>
<polygon fill="#000000" stroke="transparent" points="886.5,-24 886.5,-26 1065.5,-26 1065.5,-24 886.5,-24"/>
<polygon fill="#000000" stroke="transparent" points="886.5,-22 886.5,-24 1065.5,-24 1065.5,-22 886.5,-22"/>
<polygon fill="#000000" stroke="transparent" points="886.5,-20 886.5,-22 1065.5,-22 1065.5,-20 886.5,-20"/>
<text text-anchor="start" x="908.5" y="-6.8" font-family="arial" font-size="14.00"> </text>
</g>
<!-- &#45;BUS&#45;&#45;C5 -->
<g id="edge13" class="edge">
<title>&#45;BUS:e&#45;&#45;C5:w</title>
<path fill="none" stroke="#000000" stroke-width="2" d="M742,-81C809.34,-82.82 814.67,-22.82 886,-21"/>
<path fill="none" stroke="#000000" stroke-width="2" d="M742,-83C811.33,-83 816.67,-23 886,-23"/>
<path fill="none" stroke="#000000" stroke-width="2" d="M742,-85C813.33,-83.18 818.66,-23.18 886,-25"/>
</g>
<!-- Starter -->
<g id="node5" class="node">
<title>Starter</title>
<polygon fill="#ffffff" stroke="black" points="1304,-404 1209,-404 1209,-358 1304,-358 1304,-404"/>
<polygon fill="none" stroke="black" points="1209.5,-381 1209.5,-404 1304.5,-404 1304.5,-381 1209.5,-381"/>
<text text-anchor="start" x="1236.5" y="-388.8" font-family="arial" font-size="14.00">Starter</text>
<polygon fill="none" stroke="black" points="1209.5,-358 1209.5,-381 1268.5,-381 1268.5,-358 1209.5,-358"/>
<text text-anchor="start" x="1213.5" y="-365.8" font-family="arial" font-size="14.00">3/8 Ring</text>
<polygon fill="none" stroke="black" points="1268.5,-358 1268.5,-381 1296.5,-381 1296.5,-358 1268.5,-358"/>
<text text-anchor="start" x="1272.5" y="-365.8" font-family="arial" font-size="14.00">RD</text>
<polygon fill="#ff0000" stroke="transparent" points="1296.5,-358 1296.5,-381 1304.5,-381 1304.5,-358 1296.5,-358"/>
<polygon fill="none" stroke="black" points="1296.5,-358 1296.5,-381 1304.5,-381 1304.5,-358 1296.5,-358"/>
</g>
<!-- Alt+ -->
<g id="node6" class="node">
<title>Alt+</title>
<polygon fill="#ffffff" stroke="black" points="717.5,-471 622.5,-471 622.5,-425 717.5,-425 717.5,-471"/>
<polygon fill="none" stroke="black" points="623,-448 623,-471 718,-471 718,-448 623,-448"/>
<text text-anchor="start" x="658" y="-455.8" font-family="arial" font-size="14.00">Alt+</text>
<polygon fill="none" stroke="black" points="623,-425 623,-448 682,-448 682,-425 623,-425"/>
<text text-anchor="start" x="627" y="-432.8" font-family="arial" font-size="14.00">3/8 Ring</text>
<polygon fill="none" stroke="black" points="682,-425 682,-448 710,-448 710,-425 682,-425"/>
<text text-anchor="start" x="686" y="-432.8" font-family="arial" font-size="14.00">RD</text>
<polygon fill="#ff0000" stroke="transparent" points="710,-425 710,-448 718,-448 718,-425 710,-425"/>
<polygon fill="none" stroke="black" points="710,-425 710,-448 718,-448 718,-425 710,-425"/>
</g>
<!-- C4 -->
<g id="node15" class="node">
<title>C4</title>
<polygon fill="#ffffff" stroke="black" points="1058,-535.5 893,-535.5 893,-426.5 1058,-426.5 1058,-535.5"/>
<polygon fill="none" stroke="black" points="893.5,-512 893.5,-535 1058.5,-535 1058.5,-512 893.5,-512"/>
<text text-anchor="start" x="967" y="-519.8" font-family="arial" font-size="14.00">C4</text>
<polygon fill="none" stroke="black" points="893.5,-489 893.5,-512 930.5,-512 930.5,-489 893.5,-489"/>
<text text-anchor="start" x="904.5" y="-496.8" font-family="arial" font-size="14.00">1x</text>
<polygon fill="none" stroke="black" points="930.5,-489 930.5,-512 996.5,-512 996.5,-489 930.5,-489"/>
<text text-anchor="start" x="941" y="-496.8" font-family="arial" font-size="14.00">0 AWG</text>
<polygon fill="none" stroke="black" points="996.5,-489 996.5,-512 1058.5,-512 1058.5,-489 996.5,-489"/>
<text text-anchor="start" x="1007" y="-496.8" font-family="arial" font-size="14.00">72.0 in</text>
<text text-anchor="start" x="911.5" y="-475.8" font-family="arial" font-size="14.00"> </text>
<text text-anchor="start" x="895.5" y="-456.8" font-family="arial" font-size="14.00">Alt+:1</text>
<text text-anchor="start" x="935.5" y="-456.8" font-family="arial" font-size="14.00"> &#160;&#160;&#160;&#160;1:RD &#160;&#160;&#160;</text>
<text text-anchor="start" x="1004.5" y="-456.8" font-family="arial" font-size="14.00">Starter:1</text>
<polygon fill="#000000" stroke="transparent" points="893.5,-449 893.5,-451 1058.5,-451 1058.5,-449 893.5,-449"/>
<polygon fill="#ff0000" stroke="transparent" points="893.5,-447 893.5,-449 1058.5,-449 1058.5,-447 893.5,-447"/>
<polygon fill="#000000" stroke="transparent" points="893.5,-445 893.5,-447 1058.5,-447 1058.5,-445 893.5,-445"/>
<text text-anchor="start" x="911.5" y="-431.8" font-family="arial" font-size="14.00"> </text>
</g>
<!-- Alt+&#45;&#45;C4 -->
<g id="edge7" class="edge">
<title>Alt+:e&#45;&#45;C4:w</title>
<path fill="none" stroke="#000000" stroke-width="2" d="M719,-446C796.11,-446 815.39,-446 892.5,-446"/>
<path fill="none" stroke="#ff0000" stroke-width="2" d="M719,-448C796.11,-448 815.39,-448 892.5,-448"/>
<path fill="none" stroke="#000000" stroke-width="2" d="M719,-450C796.11,-450 815.39,-450 892.5,-450"/>
</g>
<!-- FB+ -->
<g id="node7" class="node">
<title>FB+</title>
<polygon fill="#ffffff" stroke="black" points="1296.5,-227 1216.5,-227 1216.5,-181 1296.5,-181 1296.5,-227"/>
<polygon fill="none" stroke="black" points="1216.5,-204 1216.5,-227 1296.5,-227 1296.5,-204 1216.5,-204"/>
<text text-anchor="start" x="1243.5" y="-211.8" font-family="arial" font-size="14.00">FB+</text>
<polygon fill="none" stroke="black" points="1216.5,-181 1216.5,-204 1296.5,-204 1296.5,-181 1216.5,-181"/>
<text text-anchor="start" x="1220.5" y="-188.8" font-family="arial" font-size="14.00">page_break</text>
</g>
<!-- FB&#45; -->
<g id="node8" class="node">
<title>FB&#45;</title>
<polygon fill="#ffffff" stroke="black" points="1296.5,-157 1216.5,-157 1216.5,-111 1296.5,-111 1296.5,-157"/>
<polygon fill="none" stroke="black" points="1216.5,-134 1216.5,-157 1296.5,-157 1296.5,-134 1216.5,-134"/>
<text text-anchor="start" x="1245.5" y="-141.8" font-family="arial" font-size="14.00">FB&#45;</text>
<polygon fill="none" stroke="black" points="1216.5,-111 1216.5,-134 1296.5,-134 1296.5,-111 1216.5,-111"/>
<text text-anchor="start" x="1220.5" y="-118.8" font-family="arial" font-size="14.00">page_break</text>
</g>
<!-- Frame1 -->
<g id="node9" class="node">
<title>Frame1</title>
<polygon fill="#ffffff" stroke="black" points="1303.5,-46 1209.5,-46 1209.5,0 1303.5,0 1303.5,-46"/>
<polygon fill="none" stroke="black" points="1209.5,-23 1209.5,-46 1303.5,-46 1303.5,-23 1209.5,-23"/>
<text text-anchor="start" x="1232.5" y="-30.8" font-family="arial" font-size="14.00">Frame1</text>
<polygon fill="none" stroke="black" points="1209.5,0 1209.5,-23 1268.5,-23 1268.5,0 1209.5,0"/>
<text text-anchor="start" x="1213.5" y="-7.8" font-family="arial" font-size="14.00">3/8 Ring</text>
<polygon fill="none" stroke="black" points="1268.5,0 1268.5,-23 1295.5,-23 1295.5,0 1268.5,0"/>
<text text-anchor="start" x="1272.5" y="-7.8" font-family="arial" font-size="14.00">BK</text>
<polygon fill="#000000" stroke="transparent" points="1295.5,0 1295.5,-23 1303.5,-23 1303.5,0 1295.5,0"/>
<polygon fill="none" stroke="black" points="1295.5,0 1295.5,-23 1303.5,-23 1303.5,0 1295.5,0"/>
</g>
<!-- Frame2 -->
<g id="node10" class="node">
<title>Frame2</title>
<polygon fill="#ffffff" stroke="black" points="94.5,-541 0.5,-541 0.5,-495 94.5,-495 94.5,-541"/>
<polygon fill="none" stroke="black" points="0.5,-518 0.5,-541 94.5,-541 94.5,-518 0.5,-518"/>
<text text-anchor="start" x="23.5" y="-525.8" font-family="arial" font-size="14.00">Frame2</text>
<polygon fill="none" stroke="black" points="0.5,-495 0.5,-518 59.5,-518 59.5,-495 0.5,-495"/>
<text text-anchor="start" x="4.5" y="-502.8" font-family="arial" font-size="14.00">3/8 Ring</text>
<polygon fill="none" stroke="black" points="59.5,-495 59.5,-518 86.5,-518 86.5,-495 59.5,-495"/>
<text text-anchor="start" x="63.5" y="-502.8" font-family="arial" font-size="14.00">BK</text>
<polygon fill="#000000" stroke="transparent" points="86.5,-495 86.5,-518 94.5,-518 94.5,-495 86.5,-495"/>
<polygon fill="none" stroke="black" points="86.5,-495 86.5,-518 94.5,-518 94.5,-495 86.5,-495"/>
</g>
<!-- C6 -->
<g id="node18" class="node">
<title>C6</title>
<polygon fill="#ffffff" stroke="black" points="454,-605.5 239,-605.5 239,-496.5 454,-496.5 454,-605.5"/>
<polygon fill="none" stroke="black" points="239.5,-582 239.5,-605 454.5,-605 454.5,-582 239.5,-582"/>
<text text-anchor="start" x="338" y="-589.8" font-family="arial" font-size="14.00">C6</text>
<polygon fill="none" stroke="black" points="239.5,-559 239.5,-582 292.5,-582 292.5,-559 239.5,-559"/>
<text text-anchor="start" x="258.5" y="-566.8" font-family="arial" font-size="14.00">1x</text>
<polygon fill="none" stroke="black" points="292.5,-559 292.5,-582 375.5,-582 375.5,-559 292.5,-559"/>
<text text-anchor="start" x="311.5" y="-566.8" font-family="arial" font-size="14.00">0 AWG</text>
<polygon fill="none" stroke="black" points="375.5,-559 375.5,-582 454.5,-582 454.5,-559 375.5,-559"/>
<text text-anchor="start" x="394.5" y="-566.8" font-family="arial" font-size="14.00">24.0 in</text>
<text text-anchor="start" x="269" y="-545.8" font-family="arial" font-size="14.00"> </text>
<text text-anchor="start" x="241.5" y="-526.8" font-family="arial" font-size="14.00">Frame2:1</text>
<text text-anchor="start" x="304.5" y="-526.8" font-family="arial" font-size="14.00"> &#160;&#160;&#160;&#160;1:BK &#160;&#160;&#160;</text>
<text text-anchor="start" x="372.5" y="-526.8" font-family="arial" font-size="14.00">ENG_GND:1</text>
<polygon fill="#000000" stroke="transparent" points="239.5,-519 239.5,-521 454.5,-521 454.5,-519 239.5,-519"/>
<polygon fill="#000000" stroke="transparent" points="239.5,-517 239.5,-519 454.5,-519 454.5,-517 239.5,-517"/>
<polygon fill="#000000" stroke="transparent" points="239.5,-515 239.5,-517 454.5,-517 454.5,-515 239.5,-515"/>
<text text-anchor="start" x="269" y="-501.8" font-family="arial" font-size="14.00"> </text>
</g>
<!-- Frame2&#45;&#45;C6 -->
<g id="edge15" class="edge">
<title>Frame2:e&#45;&#45;C6:w</title>
<path fill="none" stroke="#000000" stroke-width="2" d="M95,-516C159,-516 175,-516 239,-516"/>
<path fill="none" stroke="#000000" stroke-width="2" d="M95,-518C159,-518 175,-518 239,-518"/>
<path fill="none" stroke="#000000" stroke-width="2" d="M95,-520C159,-520 175,-520 239,-520"/>
</g>
<!-- ENG_GND -->
<g id="node11" class="node">
<title>ENG_GND</title>
<polygon fill="#ffffff" stroke="black" points="717,-541 623,-541 623,-495 717,-495 717,-541"/>
<polygon fill="none" stroke="black" points="623,-518 623,-541 717,-541 717,-518 623,-518"/>
<text text-anchor="start" x="635.5" y="-525.8" font-family="arial" font-size="14.00">ENG_GND</text>
<polygon fill="none" stroke="black" points="623,-495 623,-518 682,-518 682,-495 623,-495"/>
<text text-anchor="start" x="627" y="-502.8" font-family="arial" font-size="14.00">3/8 Ring</text>
<polygon fill="none" stroke="black" points="682,-495 682,-518 709,-518 709,-495 682,-495"/>
<text text-anchor="start" x="686" y="-502.8" font-family="arial" font-size="14.00">BK</text>
<polygon fill="#000000" stroke="transparent" points="709,-495 709,-518 717,-518 717,-495 709,-495"/>
<polygon fill="none" stroke="black" points="709,-495 709,-518 717,-518 717,-495 709,-495"/>
</g>
<!-- C1&#45;&#45;+BUS -->
<g id="edge2" class="edge">
<title>C1:e&#45;&#45;+BUS:w</title>
<path fill="none" stroke="#000000" stroke-width="2" d="M433.5,-253C506.61,-253 524.89,-253 598,-253"/>
<path fill="none" stroke="#ff0000" stroke-width="2" d="M433.5,-255C506.61,-255 524.89,-255 598,-255"/>
<path fill="none" stroke="#000000" stroke-width="2" d="M433.5,-257C506.61,-257 524.89,-257 598,-257"/>
</g>
<!-- C2&#45;&#45;&#45;BUS -->
<g id="edge4" class="edge">
<title>C2:e&#45;&#45;&#45;BUS:w</title>
<path fill="none" stroke="#000000" stroke-width="2" d="M428.5,-104C503.83,-104 522.67,-104 598,-104"/>
<path fill="none" stroke="#000000" stroke-width="2" d="M428.5,-106C503.83,-106 522.67,-106 598,-106"/>
<path fill="none" stroke="#000000" stroke-width="2" d="M428.5,-108C503.83,-108 522.67,-108 598,-108"/>
</g>
<!-- C3&#45;&#45;Starter -->
<g id="edge6" class="edge">
<title>C3:e&#45;&#45;Starter:w</title>
<path fill="none" stroke="#000000" stroke-width="2" d="M1065,-313C1137.4,-314.9 1140.6,-380.9 1209,-379"/>
<path fill="none" stroke="#ff0000" stroke-width="2" d="M1065,-315C1135.4,-315 1138.6,-381 1209,-381"/>
<path fill="none" stroke="#000000" stroke-width="2" d="M1065,-317C1133.4,-315.1 1136.6,-381.1 1209,-383"/>
</g>
<!-- C4&#45;&#45;Starter -->
<g id="edge8" class="edge">
<title>C4:e&#45;&#45;Starter:w</title>
<path fill="none" stroke="#000000" stroke-width="2" d="M1059.5,-446C1130.32,-447.88 1134.19,-380.88 1209,-379"/>
<path fill="none" stroke="#ff0000" stroke-width="2" d="M1059.5,-448C1132.31,-448 1136.19,-381 1209,-381"/>
<path fill="none" stroke="#000000" stroke-width="2" d="M1059.5,-450C1134.31,-448.12 1138.18,-381.12 1209,-383"/>
</g>
<!-- W1&#45;&#45;FB+ -->
<g id="edge10" class="edge">
<title>W1:e&#45;&#45;FB+:w</title>
<path fill="none" stroke="#000000" stroke-width="2" d="M1057.5,-180C1130.01,-180.81 1146.21,-202.81 1215.5,-202"/>
<path fill="none" stroke="#ff0000" stroke-width="2" d="M1057.5,-182C1128.4,-182 1144.6,-204 1215.5,-204"/>
<path fill="none" stroke="#000000" stroke-width="2" d="M1057.5,-184C1126.79,-183.19 1142.99,-205.19 1215.5,-206"/>
</g>
<!-- W1&#45;&#45;FB&#45; -->
<g id="edge12" class="edge">
<title>W1:e&#45;&#45;FB&#45;:w</title>
<path fill="none" stroke="#000000" stroke-width="2" d="M1057.5,-155C1126.82,-155.85 1142.9,-132.85 1215.5,-132"/>
<path fill="none" stroke="#000000" stroke-width="2" d="M1057.5,-157C1128.46,-157 1144.54,-134 1215.5,-134"/>
<path fill="none" stroke="#000000" stroke-width="2" d="M1057.5,-159C1130.1,-158.15 1146.18,-135.15 1215.5,-136"/>
</g>
<!-- C5&#45;&#45;Frame1 -->
<g id="edge14" class="edge">
<title>C5:e&#45;&#45;Frame1:w</title>
<path fill="none" stroke="#000000" stroke-width="2" d="M1065,-21C1129,-21 1145,-21 1209,-21"/>
<path fill="none" stroke="#000000" stroke-width="2" d="M1065,-23C1129,-23 1145,-23 1209,-23"/>
<path fill="none" stroke="#000000" stroke-width="2" d="M1065,-25C1129,-25 1145,-25 1209,-25"/>
</g>
<!-- C6&#45;&#45;ENG_GND -->
<g id="edge16" class="edge">
<title>C6:e&#45;&#45;ENG_GND:w</title>
<path fill="none" stroke="#000000" stroke-width="2" d="M454,-516C528.67,-516 547.33,-516 622,-516"/>
<path fill="none" stroke="#000000" stroke-width="2" d="M454,-518C528.67,-518 547.33,-518 622,-518"/>
<path fill="none" stroke="#000000" stroke-width="2" d="M454,-520C528.67,-520 547.33,-520 622,-520"/>
</g>
</g>
</svg>
